<svg id="Capa_1" enable-background="new 0 0 512 512" height="512" viewBox="0 0 512 512" width="512" xmlns="http://www.w3.org/2000/svg"><path d="m509.06 49.042-46.246-46.123c-3.99-3.98-10.48-3.877-14.343.226l-25.389 26.969c-3.948 4.194-10.614 4.194-14.562 0l-25.162-26.728c-3.948-4.194-10.614-4.194-14.563 0l-25.161 26.728c-3.948 4.194-10.614 4.194-14.563 0l-25.161-26.728c-3.948-4.194-10.614-4.194-14.562 0l-25.164 26.73c-3.948 4.194-10.614 4.194-14.562 0l-25.384-26.963c-3.866-4.106-10.361-4.205-14.35-.218l-46.271 46.25c-3.98 3.99-3.878 10.48.226 14.343l26.969 25.389c4.194 3.948 4.194 10.614 0 14.562l-26.729 25.162c-4.194 3.948-4.194 10.614 0 14.563l26.728 25.161c4.194 3.948 4.194 10.614 0 14.563l-26.729 25.162c-4.194 3.948-4.194 10.614 0 14.562l26.73 25.164c4.194 3.948 4.194 10.614 0 14.562l-34.464 32.447v.167l53.535 53.391c3.99 3.98 10.48 3.877 14.343-.226l25.389-26.969c3.948-4.194 10.614-4.194 14.562 0l25.162 26.729c3.948 4.194 10.614 4.194 14.563 0l25.161-26.728c3.948-4.194 10.614-4.194 14.563 0l25.162 26.729c3.948 4.194 10.614 4.194 14.562 0l25.164-26.73c3.948-4.194 10.614-4.194 14.562 0l25.384 26.962c3.866 4.106 10.361 4.205 14.35.218l46.271-46.25c3.98-3.99 3.877-10.48-.226-14.343l-26.969-25.389c-4.194-3.948-4.194-10.614 0-14.562l26.729-25.162c4.194-3.948 4.194-10.614 0-14.563l-26.728-25.161c-4.194-3.948-4.194-10.614 0-14.563l26.729-25.162c4.194-3.948 4.194-10.614 0-14.562l-26.73-25.164c-4.194-3.948-4.194-10.614 0-14.562l26.988-25.539c4.092-3.874 4.177-10.364.186-14.344z" fill="#ff5c47"/><path d="m508.854 287.774-26.969-25.389c-4.194-3.948-4.194-10.614 0-14.562l26.729-25.162c4.194-3.948 4.194-10.614 0-14.563l-26.728-25.161c-4.194-3.948-4.194-10.614 0-14.563l26.729-25.162c4.194-3.948 4.194-10.614 0-14.562l-26.73-25.164c-4.194-3.948-4.194-10.614 0-14.562l26.988-25.539c4.094-3.874 4.179-10.364.188-14.344l-46.247-46.122c-3.99-3.98-10.48-3.877-14.343.226l-25.389 26.969c-3.948 4.194-10.614 4.194-14.562 0l-25.162-26.728c-3.948-4.194-10.614-4.194-14.563 0l-25.161 26.728c-2.519 2.675-6.141 3.636-9.461 2.898v285.275c3.317-.733 6.934.228 9.45 2.901l25.162 26.729c3.948 4.194 10.614 4.194 14.562 0l25.164-26.73c3.948-4.194 10.614-4.194 14.562 0l25.384 26.962c3.866 4.107 10.361 4.205 14.35.218l46.271-46.25c3.982-3.991 3.88-10.48-.224-14.343z" fill="#d9331d"/><path d="m302.117 163.617c-3.99-3.98-10.48-3.878-14.343.226l-25.389 26.969c-3.948 4.194-10.614 4.194-14.562 0l-25.162-26.729c-3.948-4.194-10.614-4.194-14.563 0l-25.161 26.728c-3.948 4.194-10.614 4.194-14.563 0l-25.162-26.729c-3.948-4.194-10.614-4.194-14.562 0l-25.164 26.73c-3.948 4.194-10.614 4.194-14.562 0l-25.539-26.988c-3.874-4.094-10.364-4.179-14.344-.188l-46.122 46.247c-3.98 3.99-3.877 10.48.226 14.343l26.969 25.389c4.194 3.948 4.194 10.614 0 14.562l-26.728 25.162c-4.194 3.948-4.194 10.614 0 14.563l26.728 25.161c4.194 3.948 4.194 10.614 0 14.563l-26.728 25.161c-4.194 3.948-4.194 10.614 0 14.562l26.73 25.164c4.194 3.948 4.194 10.614 0 14.562l-26.963 25.384c-4.106 3.866-4.205 10.361-.218 14.35l46.25 46.271c3.99 3.98 10.48 3.877 14.343-.226l25.389-26.969c3.948-4.194 10.614-4.194 14.562 0l25.162 26.729c3.948 4.194 10.614 4.194 14.563 0l25.161-26.728c3.948-4.194 10.614-4.194 14.563 0l25.162 26.729c3.948 4.194 10.614 4.194 14.562 0l25.164-26.73c3.948-4.194 10.614-4.194 14.562 0l25.384 26.962c3.866 4.106 10.361 4.205 14.35.218l46.271-46.25c3.98-3.99 3.877-10.48-.226-14.343l-26.969-25.389c-4.194-3.948-4.194-10.614 0-14.562l26.729-25.162c4.194-3.948 4.194-10.614 0-14.563l-26.728-25.161c-4.194-3.948-4.194-10.614 0-14.563l26.729-25.162c4.194-3.948 4.194-10.614 0-14.562l-26.73-25.164c-4.194-3.948-4.194-10.614 0-14.562l26.962-25.384c4.106-3.866 4.205-10.361.218-14.35z" fill="#5ccb53"/><path d="m348.157 448.471-26.969-25.389c-4.194-3.948-4.194-10.614 0-14.562l26.729-25.162c4.194-3.948 4.194-10.614 0-14.563l-26.728-25.161c-4.194-3.948-4.194-10.614 0-14.563l26.729-25.162c4.194-3.948 4.194-10.614 0-14.562l-26.73-25.164c-4.194-3.948-4.194-10.614 0-14.562l26.962-25.384c4.107-3.866 4.205-10.361.218-14.35l-46.25-46.271c-3.99-3.98-10.48-3.877-14.343.226l-25.389 26.969c-3.948 4.194-10.614 4.194-14.562 0l-25.162-26.729c-3.948-4.194-10.614-4.194-14.563 0l-25.161 26.728c-1.975 2.098-4.631 3.147-7.287 3.145v284.785c2.652.001 5.303 1.05 7.276 3.145l25.162 26.729c3.948 4.194 10.614 4.194 14.562 0l25.164-26.73c3.948-4.194 10.614-4.194 14.562 0l25.384 26.962c3.866 4.107 10.361 4.205 14.35.218l46.271-46.25c3.981-3.99 3.879-10.48-.225-14.343z" fill="#36b579"/></svg>