<svg id="Capa_1" data-name="Capa 1" xmlns="http://www.w3.org/2000/svg" viewBox="0 0 72.72 71.67"><defs><style>.cls-1{fill:#da0b15;}</style></defs><title>gift</title><path class="cls-1" d="M66.14,18.8H58a9.77,9.77,0,0,0,4.81-8.21C62.8,5,57.71.52,51.46.52c-5.31,0-11.59,9.1-15.1,15-3.51-5.87-9.79-15-15.1-15C15,.52,9.92,5,9.92,10.59a9.77,9.77,0,0,0,4.81,8.21H6.59A6.6,6.6,0,0,0,0,25.39V35.82a6.57,6.57,0,0,0,3.68,5.9V65.61a6.59,6.59,0,0,0,6.58,6.59H63a6.59,6.59,0,0,0,6.58-6.59V41.46a6.59,6.59,0,0,0,3.19-5.63V25.39A6.59,6.59,0,0,0,66.14,18.8ZM6.59,36.41A.58.58,0,0,1,6,35.83V25.39a.58.58,0,0,1,.59-.59H33.36V36.41ZM39.36,24.8H66.14a.58.58,0,0,1,.58.59V35.82a.58.58,0,0,1-.58.59H39.36ZM51.46,6.52c2.89,0,5.34,1.87,5.34,4.07s-2.45,4.06-5.34,4.06H44.05C47.08,10.27,50.2,6.78,51.46,6.52Zm-30.28,0c1.32.26,4.46,3.75,7.49,8.13H21.26c-2.89,0-5.34-1.86-5.34-4.06S18.37,6.52,21.18,6.52ZM9.68,65.61V42.41H33.36V66.2H10.26A.58.58,0,0,1,9.68,65.61ZM63,66.2H39.36V42.41H63.53v23.2A.58.58,0,0,1,63,66.2Z" transform="translate(0 -0.52)"/></svg>