<svg width="25" height="25" viewBox="0 0" fill="none" xmlns="http://www.w3.org/2000/svg">
<path d="M7.39999 14.6251C7.78564 15.1807 7.90872 15.8649 7.73941 16.5111L5.40389 15.5603C5.13292 15.3242 4.97882 14.9904 4.97942 14.6406V13.4028C4.97942 13.2065 4.56235 12.0695 3.78444 11.8245C3.2515 11.6549 2.66572 11.7396 2.20942 12.0522C1.75332 12.3648 1.48275 12.8674 1.48175 13.4028V15.2065C1.48195 16.2473 1.85319 17.2572 2.53463 18.0705L4.3366 20.2168C4.86955 20.8502 5.5696 21.337 6.36532 21.6273L9.36126 22.7272C9.80455 22.8888 10.498 23.4955 11.2635 24.3938C11.5945 24.7798 12.0908 25.0028 12.614 25H21.6048C22.0413 25.0001 22.4492 24.7932 22.6929 24.4482C22.9369 24.1031 22.9845 23.665 22.8202 23.2796L20.8887 18.7556C20.7713 18.419 20.6952 18.0705 20.6618 17.7173L20.5153 16.1689C20.5137 16.1508 20.5105 16.1329 20.5057 16.1151L20.0882 11.8849C19.9766 10.718 19.5635 9.59557 18.8858 8.61789L16.7875 5.59423C16.4216 5.06934 15.8042 4.75406 15.1432 4.75463C14.758 4.75444 14.3813 4.86316 14.0607 5.06667C13.7443 5.26884 13.4959 5.55361 13.3454 5.887L12.8527 5.17882C12.4507 4.599 11.7448 4.27895 11.0191 4.34761C10.2937 4.41628 9.66746 4.86202 9.39268 5.50592L8.91757 4.8191C8.31819 3.95681 7.09919 3.71973 6.19341 4.28963C5.84318 4.51222 5.57761 4.83684 5.43671 5.21506L3.60613 2.92343C3.00674 2.06056 1.78694 1.82367 0.881157 2.39415C0.444673 2.66976 0.141476 3.09947 0.0384093 3.5887C-0.0644575 4.07773 0.0412112 4.58584 0.3324 5.00049L7.39999 14.6251ZM0.895566 3.75044C0.952403 3.47941 1.12111 3.24157 1.36367 3.09013C1.879 2.78 2.56005 2.92095 2.89386 3.40674L5.51096 6.68216L5.51356 6.68674L5.51877 6.69627C5.55559 6.76246 5.59402 6.82826 5.63644 6.88949C5.64905 6.90322 5.66266 6.916 5.67707 6.92782L9.24679 12.0703C9.38408 12.2509 9.64605 12.2963 9.84137 12.1737C10.0367 12.0509 10.0961 11.8033 9.97606 11.612L6.28527 6.29212L6.28266 6.28754C6.05972 5.82063 6.22663 5.26846 6.67612 4.98618C7.18265 4.68349 7.84928 4.81319 8.1909 5.28086L9.55939 7.25531C9.5794 7.28392 9.60282 7.31005 9.62924 7.33332L11.6596 10.3974C11.7886 10.592 12.0586 10.6501 12.2627 10.5271C12.4669 10.4043 12.5279 10.147 12.3988 9.95243L10.3005 6.78573C10.1396 6.55666 10.0823 6.27552 10.1418 6.00583C10.1992 5.73461 10.3677 5.49639 10.6099 5.3438C11.1164 5.04092 11.7832 5.17043 12.1249 5.63829L13.3651 7.42506C13.3709 7.43536 13.3773 7.44585 13.3839 7.45615L13.3875 7.4613C13.4223 7.52672 13.4581 7.58947 13.5001 7.65374C13.5136 7.66996 13.5282 7.68541 13.544 7.69952L14.6085 9.30376C14.6901 9.43345 14.8392 9.5107 14.9977 9.50574C15.1564 9.50078 15.2997 9.41419 15.3724 9.27972C15.4448 9.14507 15.435 8.98371 15.3469 8.85783L14.1464 7.04875C13.9358 6.58432 14.1027 6.04264 14.5432 5.76036C15.0498 5.45748 15.7164 5.58717 16.0578 6.05504L18.1562 9.07736C18.754 9.9408 19.1184 10.9315 19.2173 11.9616L19.6401 16.241C19.6415 16.2582 19.6443 16.2752 19.6483 16.2919L19.7904 17.7919C19.8309 18.2181 19.9243 18.6385 20.0686 19.0438L22.0093 23.5929C22.0641 23.7213 22.0483 23.8674 21.9672 23.9824C21.886 24.0974 21.7503 24.1665 21.6048 24.1666H12.614C12.3536 24.1684 12.1062 24.0579 11.9411 23.8659C11.3247 23.1434 10.4302 22.2242 9.67427 21.9492L6.67732 20.8489C6.0269 20.6114 5.45433 20.2132 5.01864 19.6952L3.21707 17.5494C2.65971 16.884 2.35611 16.0579 2.35611 15.2065V13.4028C2.35711 13.135 2.493 12.884 2.72155 12.7279C2.9499 12.5721 3.24309 12.5303 3.50946 12.6156C3.73981 12.6873 4.0342 13.2139 4.10505 13.447V14.6398C4.10405 15.2567 4.39144 15.8418 4.88876 16.2364C4.92158 16.2626 4.958 16.2839 4.99723 16.2998L7.39619 17.2765C7.63154 17.3722 7.89931 17.365 8.12866 17.2565C8.35801 17.1479 8.52572 16.949 8.58796 16.7123C8.81631 15.8355 8.6474 14.9076 8.12266 14.1552L1.05467 4.53167C0.893765 4.30222 0.836528 4.0207 0.895566 3.75044Z" fill="#00075A"/>
<path d="M25.3472 1.04169C25.1555 1.04169 25 1.27486 25 1.5624C25 1.85018 25.1555 2.08335 25.3472 2.08335H25.6945C25.8862 2.08335 26.0417 1.85018 26.0417 1.5624C26.0417 1.27486 25.8862 1.04169 25.6945 1.04169H25.3472Z" fill="#00075A"/>
<path d="M23.9583 1.56202C23.9583 1.34576 23.743 1.17039 23.4774 1.17039H19.3499L19.9714 0.663809C20.1536 0.510132 20.1509 0.2659 19.9657 0.114734C19.7801 -0.0364321 19.4804 -0.0384045 19.2916 0.109892L17.8495 1.28515C17.7591 1.35867 17.7083 1.45837 17.7083 1.56256C17.7083 1.66656 17.7591 1.76626 17.8495 1.83978L19.2916 3.01504C19.4804 3.16352 19.7801 3.16136 19.9657 3.0102C20.1509 2.85921 20.1536 2.6148 19.9714 2.46112L19.3499 1.95383H23.4774C23.743 1.95383 23.9583 1.77846 23.9583 1.56202Z" fill="#00075A"/>
<path d="M14.9305 1.04169C14.7387 1.04169 14.5833 1.27486 14.5833 1.5624C14.5833 1.85018 14.7387 2.08335 14.9305 2.08335H15.2776C15.4695 2.08335 15.6249 1.85018 15.6249 1.5624C15.6249 1.27486 15.4695 1.04169 15.2776 1.04169H14.9305Z" fill="#00075A"/>
<path d="M13.5417 1.56202C13.5417 1.34576 13.3265 1.17039 13.0609 1.17039H8.93342L9.55509 0.663809C9.73708 0.510132 9.73466 0.2659 9.54915 0.114734C9.36364 -0.0364321 9.06391 -0.0384045 8.87532 0.109892L7.43303 1.28515C7.34258 1.35867 7.29175 1.45837 7.29175 1.56256C7.29175 1.66656 7.34258 1.76626 7.43303 1.83978L8.87532 3.01504C9.06391 3.16352 9.36364 3.16136 9.54915 3.0102C9.73466 2.85921 9.73708 2.6148 9.55509 2.46112L8.93342 1.95383H13.0609C13.3265 1.95383 13.5417 1.77846 13.5417 1.56202Z" fill="#00075A"/>
</svg>
